<svg version="1.2" xmlns="http://www.w3.org/2000/svg" viewBox="0 0 832 594" width="40" height="26">
	<title>Mastercard-Logo</title>
	<style>
		.s0 { fill: #ff5f00 } 
		.s1 { fill: #eb001b } 
		.s2 { fill: #f79e1b } 
	</style>
	<path id="rect887" class="s0" d="m320.8 141.3h190.4v311h-190.4z"/>
	<path id="path889" class="s1" d="m345.4 341.2c3.4 14.5 8.4 28.7 14.9 42.1 6.5 13.4 14.5 26.1 23.9 37.7 9.4 11.6 20 22.1 31.8 31.4-59.5 46.7-140.6 55.4-208.7 22.3-68.1-33.1-111.3-102.1-111.3-177.8 0-75.8 43.2-144.8 111.3-177.9 68.1-33.1 149.2-24.4 208.7 22.4-11.8 9.2-22.4 19.7-31.8 31.3-9.4 11.6-17.4 24.3-23.9 37.7-6.5 13.4-11.5 27.5-14.8 42.1-3.4 14.5-5.1 29.4-5.1 44.3 0 15 1.7 29.8 5 44.4z"/>
	<path id="path893" class="s2" d="m736 296.8c0 37.1-10.4 73.5-30.1 105-19.7 31.4-47.9 56.7-81.3 72.9-33.3 16.2-70.6 22.7-107.5 18.8-36.9-4-71.9-18.3-101.1-41.2 23.5-18.5 42.6-42.1 55.7-69.1 13.1-26.9 19.9-56.5 19.9-86.4 0-29.9-6.8-59.5-19.9-86.4-13.1-27-32.2-50.6-55.7-69.1 29.2-22.9 64.2-37.2 101.1-41.2 36.9-3.9 74.2 2.6 107.6 18.8 33.3 16.2 61.5 41.5 81.2 72.9 19.7 31.5 30.1 67.9 30.1 105z"/>
</svg>